<?xml version="1.0" encoding="UTF-8" standalone="no"?><!DOCTYPE svg PUBLIC "-//W3C//DTD SVG 1.1//EN" "http://www.w3.org/Graphics/SVG/1.1/DTD/svg11.dtd">
<svg width="100%" height="100%" viewBox="0 0 2134 2134" version="1.1"
  xmlns="http://www.w3.org/2000/svg"
  xmlns:xlink="http://www.w3.org/1999/xlink" xml:space="preserve"
  xmlns:serif="http://www.serif.com/" style="fill-rule:evenodd;clip-rule:evenodd;stroke-linecap:round;stroke-linejoin:round;stroke-miterlimit:1.5;">
  <style>
    .bg { fill: #c4d7ed; }
    .fgs { stroke: #000; }
    .fgt { fill: #000; }
    @media (prefers-color-scheme: dark) {
      .bg { fill: #132842; }
      .fgs { stroke: #fff; }
      .fgt { fill: #fff; }
    }
  </style>
  <g id="Layer1">
    <rect class="bg" x="0" y="0" width="2133.33" height="2133.33" />
    <rect class="fgs" x="200" y="200" width="1733.33" height="1733.33" style="fill:none;stroke-width:100px;stroke-linecap:square;stroke-linejoin:miter;"/>
    <path class="fgt" d="M662.018,1693.33c155.827,-0 288.197,-8.378 382.029,-25.134c20.106,-3.351 60.32,-16.755 80.427,-18.431c21.782,0 65.347,-8.378 87.129,-8.378c65.347,0 150.801,-93.831 231.228,-105.56c72.049,-82.103 82.103,-191.015 159.179,-284.846c-0,-20.107 23.457,-105.561 23.457,-157.503c0,-36.863 10.054,-160.854 10.054,-231.228c-0,-26.809 -30.16,-115.614 -48.592,-144.099c-48.591,-77.076 -108.911,-118.965 -142.423,-137.396c-18.431,-10.053 -31.835,-33.511 -40.213,-38.538c-10.053,-8.378 -23.458,-15.08 -31.836,-15.08c-10.053,-0 -11.729,-16.756 -25.133,-21.782c-48.592,-21.783 -118.965,-28.485 -159.179,-35.187c-38.538,-6.703 -85.454,-13.405 -125.667,-13.405c-41.889,0 -70.374,1.676 -82.103,15.08c0,-16.755 -35.187,-25.133 -63.671,-31.835c-48.592,10.053 -98.859,16.755 -147.45,16.755c-43.565,0 -83.778,-3.351 -122.316,-3.351c-55.294,0 -98.859,1.676 -134.045,23.458c-1.676,11.729 -15.08,28.485 -15.08,36.862c-0,48.592 20.106,63.672 20.106,83.779c0,5.026 8.378,15.08 15.08,25.133c35.187,10.053 53.618,23.458 80.427,60.32c-10.053,41.889 -15.08,83.779 -15.08,122.317c0,56.969 3.352,110.587 10.054,160.854c-10.054,6.702 -11.729,23.458 -11.729,73.725c-0,67.022 -3.351,196.041 -3.351,283.17c-0,58.645 3.351,172.583 10.053,214.472c15.08,68.698 45.24,125.668 58.645,155.828Zm469.158,-1035.5c10.053,-3.351 18.431,-8.378 18.431,-15.08c11.729,-0 18.431,6.702 18.431,15.08c132.37,43.565 236.255,125.667 249.659,291.548c-8.377,55.294 -13.404,98.858 -13.404,155.828c-51.943,107.236 -35.187,231.228 -137.396,298.25c-15.08,1.676 -41.889,28.485 -65.347,28.485c-73.725,-0 -165.881,50.267 -244.633,50.267c-13.404,-0 -26.809,-0 -40.213,-3.351c-43.565,-8.378 -70.374,-30.161 -115.614,-30.161c1.675,-21.782 3.351,-120.64 3.351,-155.827c-0,-16.756 -1.676,-43.565 -13.405,-60.32c0,-31.836 -5.026,-77.076 -5.026,-110.588c-0,-51.942 3.351,-78.751 3.351,-130.694c-0,-107.236 25.133,-170.907 25.133,-239.605c0,-21.783 -3.351,-43.565 -10.053,-68.699c48.591,-33.511 82.102,-43.564 132.369,-43.564c58.645,-0 127.343,8.378 194.366,18.431Z" style="fill-rule:nonzero;"/>
  </g>
</svg>